# xmcd CD database file
#
# Track frame offsets:
#	150
#	29302
#	54028
#	79728
#	102040
#	117179
#	139432
#	162350
#	184759
#
# Disc length: 3179 seconds
#
# Revision: 0
# Processed by: cddbd v1.5.2PL0 Copyright (c) Steve Scherf et al.
# Submitted via: CDex 1.70beta2
#
DISCID=6c0c6909
DTITLE=Arthur Blythe - Synergy
DYEAR=1996
DGENRE=Jazz
TTITLE0=Morning Call
TTITLE1=Earth Tones
TTITLE2=Synergy
TTITLE3=Time Cycles
TTITLE4=Infinity
TTITLE5=Afternoon Musings
TTITLE6=Sociability
TTITLE7=Walking Line
TTITLE8=Night Scape
EXTD=YEAR: 1996
EXTT0=
EXTT1=
EXTT2=
EXTT3=
EXTT4=
EXTT5=
EXTT6=
EXTT7=
EXTT8=
PLAYORDER=
